<svg xmlns="http://www.w3.org/2000/svg" width="512" height="512" viewBox="0 0 512 512">
    <defs>
        <linearGradient id="grad" x1="0%" y1="0%" x2="100%" y2="100%">
            <stop offset="0%" style="stop-color:#667eea;stop-opacity:1" />
            <stop offset="100%" style="stop-color:#764ba2;stop-opacity:1" />
        </linearGradient>
    </defs>
    <rect x="0" y="0" width="512" height="512" rx="128" fill="url(#grad)"/>
    <path d="M389.656 232.896l-32-144A16.001 16.001 0 0 0 342.4 76H169.6a16 16 0 0 0-15.256 12.896l-32 144A16 16 0 0 0 138.4 252h27.688l-4.064 40.624A16 16 0 0 0 177.6 308h44.8a16 16 0 0 0 15.576-15.376L241.6 252h28.8l3.624 40.624A16 16 0 0 0 289.6 308h44.8a16 16 0 0 0 15.576-15.376L345.912 252H373.6a16 16 0 0 0 16.056-19.104zM198.4 108h115.2l24.888 112H173.512L198.4 108zm-6.288 168l3.2-32h121.376l3.2 32H192.112z" fill="white"/>
</svg>